<svg xmlns="http://www.w3.org/2000/svg" width="192" height="192" viewBox="0 0 192 192" role="img" aria-labelledby="title desc">
  <title id="title">Dental checkup mark</title>
  <desc id="desc">A tooth with a check mark used as the dental checkup tracker image.</desc>
  <rect width="192" height="192" rx="24" fill="#E7FAF0"/>
  <path d="M96 31c-12.2-12.4-36.7-11.4-48.8 4.7-13.6 18.1-4.2 42.5 1.8 57.9 2.6 6.7 3.3 16.8 4.1 27.5 1.2 17.4 2.6 37 15.8 42.8 8.4 3.7 14.2-8.3 20-27.2 2.1-6.9 4.3-13.9 7.1-19.1 2.8 5.2 5 12.2 7.1 19.1 5.8 18.9 11.6 30.9 20 27.2 13.2-5.8 14.6-25.4 15.8-42.8.8-10.7 1.5-20.8 4.1-27.5 6-15.4 15.4-39.8 1.8-57.9C132.7 19.6 108.2 18.6 96 31Z" fill="#FFFFFF" stroke="#17211F" stroke-width="7" stroke-linejoin="round"/>
  <path d="M71 91l17 18 36-43" fill="none" stroke="#F15F5F" stroke-width="12" stroke-linecap="round" stroke-linejoin="round"/>
  <path d="M55 41c8.5-8.4 21.3-10.6 33-5.8" fill="none" stroke="#37A977" stroke-width="7" stroke-linecap="round"/>
</svg>
